<svg width="387" height="216" viewBox="0 0 387 216" fill="none" xmlns="http://www.w3.org/2000/svg">
<rect width="387" height="216" fill="url(#paint0_linear_10_4)"/>
<path d="M58.968 132C57.7733 132 56.792 131.637 56.024 130.912C55.256 130.144 54.872 129.205 54.872 128.096V90.976H63.192V128.096C63.192 129.205 62.7867 130.144 61.976 130.912C61.208 131.637 60.2053 132 58.968 132ZM44.824 94.56C43.7147 94.56 42.776 94.2187 42.008 93.536C41.2827 92.8533 40.92 91.9573 40.92 90.848C40.92 89.7387 41.2827 88.864 42.008 88.224C42.776 87.5413 43.7147 87.2 44.824 87.2H73.24C74.3493 87.2 75.2667 87.5413 75.992 88.224C76.76 88.9067 77.144 89.8027 77.144 90.912C77.144 92.0213 76.76 92.9173 75.992 93.6C75.2667 94.24 74.3493 94.56 73.24 94.56H44.824ZM108.751 114.912C108.751 118.411 107.962 121.504 106.383 124.192C104.847 126.837 102.756 128.907 100.111 130.4C97.5083 131.893 94.5857 132.64 91.343 132.64C88.1003 132.64 85.1563 131.893 82.511 130.4C79.9083 128.907 77.8177 126.837 76.239 124.192C74.703 121.504 73.935 118.411 73.935 114.912C73.935 111.413 74.703 108.341 76.239 105.696C77.8177 103.008 79.9083 100.917 82.511 99.424C85.1563 97.888 88.1003 97.12 91.343 97.12C94.5857 97.12 97.5083 97.888 100.111 99.424C102.756 100.917 104.847 103.008 106.383 105.696C107.962 108.341 108.751 111.413 108.751 114.912ZM101.071 114.912C101.071 112.736 100.623 110.859 99.727 109.28C98.8737 107.659 97.7003 106.4 96.207 105.504C94.7563 104.608 93.135 104.16 91.343 104.16C89.551 104.16 87.9083 104.608 86.415 105.504C84.9643 106.4 83.791 107.659 82.895 109.28C82.0417 110.859 81.615 112.736 81.615 114.912C81.615 117.045 82.0417 118.923 82.895 120.544C83.791 122.123 84.9643 123.36 86.415 124.256C87.9083 125.152 89.551 125.6 91.343 125.6C93.135 125.6 94.7563 125.152 96.207 124.256C97.7003 123.36 98.8737 122.123 99.727 120.544C100.623 118.923 101.071 117.045 101.071 114.912ZM118.417 116.192C117.307 116.192 116.369 115.829 115.601 115.104C114.875 114.379 114.513 113.461 114.513 112.352C114.513 111.243 114.875 110.347 115.601 109.664C116.369 108.939 117.307 108.576 118.417 108.576H129.553C130.662 108.576 131.579 108.96 132.305 109.728C133.073 110.453 133.457 111.371 133.457 112.48C133.457 113.547 133.073 114.443 132.305 115.168C131.579 115.851 130.662 116.192 129.553 116.192H118.417ZM160.688 87.2C163.76 87.2 166.49 87.776 168.88 88.928C171.269 90.08 173.274 91.7013 174.896 93.792C176.56 95.84 177.797 98.2293 178.608 100.96C179.461 103.648 179.888 106.528 179.888 109.6C179.888 113.739 179.141 117.515 177.648 120.928C176.154 124.299 173.978 126.987 171.12 128.992C168.304 130.997 164.826 132 160.688 132H145.392C144.282 132 143.344 131.637 142.576 130.912C141.85 130.144 141.488 129.205 141.488 128.096V91.104C141.488 89.9947 141.85 89.0773 142.576 88.352C143.344 87.584 144.282 87.2 145.392 87.2H160.688ZM160.048 124.64C162.736 124.64 164.933 123.957 166.64 122.592C168.346 121.184 169.584 119.349 170.352 117.088C171.162 114.784 171.568 112.288 171.568 109.6C171.568 107.595 171.333 105.696 170.864 103.904C170.437 102.069 169.754 100.469 168.816 99.104C167.877 97.696 166.682 96.5867 165.232 95.776C163.781 94.9653 162.053 94.56 160.048 94.56H148.848L149.488 93.984V125.344L149.104 124.64H160.048ZM220.314 114.912C220.314 118.411 219.524 121.504 217.946 124.192C216.41 126.837 214.319 128.907 211.674 130.4C209.071 131.893 206.148 132.64 202.906 132.64C199.663 132.64 196.719 131.893 194.074 130.4C191.471 128.907 189.38 126.837 187.802 124.192C186.266 121.504 185.498 118.411 185.498 114.912C185.498 111.413 186.266 108.341 187.802 105.696C189.38 103.008 191.471 100.917 194.074 99.424C196.719 97.888 199.663 97.12 202.906 97.12C206.148 97.12 209.071 97.888 211.674 99.424C214.319 100.917 216.41 103.008 217.946 105.696C219.524 108.341 220.314 111.413 220.314 114.912ZM212.634 114.912C212.634 112.736 212.186 110.859 211.29 109.28C210.436 107.659 209.263 106.4 207.77 105.504C206.319 104.608 204.698 104.16 202.906 104.16C201.114 104.16 199.471 104.608 197.978 105.504C196.527 106.4 195.354 107.659 194.458 109.28C193.604 110.859 193.178 112.736 193.178 114.912C193.178 117.045 193.604 118.923 194.458 120.544C195.354 122.123 196.527 123.36 197.978 124.256C199.471 125.152 201.114 125.6 202.906 125.6C204.698 125.6 206.319 125.152 207.77 124.256C209.263 123.36 210.436 122.123 211.29 120.544C212.186 118.923 212.634 117.045 212.634 114.912ZM270.317 124.512C271.426 124.512 272.343 124.875 273.069 125.6C273.837 126.283 274.221 127.179 274.221 128.288C274.221 129.355 273.837 130.251 273.069 130.976C272.343 131.659 271.426 132 270.317 132H249.517C248.407 132 247.469 131.637 246.701 130.912C245.975 130.144 245.613 129.205 245.613 128.096V91.104C245.613 89.9947 245.997 89.0773 246.765 88.352C247.533 87.584 248.514 87.2 249.709 87.2C250.733 87.2 251.629 87.584 252.397 88.352C253.207 89.0773 253.613 89.9947 253.613 91.104V125.6L252.205 124.512H270.317ZM288.142 128.096C288.142 129.205 287.779 130.144 287.054 130.912C286.329 131.637 285.411 132 284.302 132C283.193 132 282.275 131.637 281.55 130.912C280.825 130.144 280.462 129.205 280.462 128.096V101.664C280.462 100.555 280.825 99.6373 281.55 98.912C282.275 98.144 283.193 97.76 284.302 97.76C285.411 97.76 286.329 98.144 287.054 98.912C287.779 99.6373 288.142 100.555 288.142 101.664V128.096ZM284.238 93.6C282.787 93.6 281.763 93.3653 281.166 92.896C280.569 92.4267 280.27 91.5947 280.27 90.4V89.184C280.27 87.9467 280.59 87.1147 281.23 86.688C281.913 86.2187 282.937 85.984 284.302 85.984C285.795 85.984 286.841 86.2187 287.438 86.688C288.035 87.1573 288.334 87.9893 288.334 89.184V90.4C288.334 91.6373 288.014 92.4907 287.374 92.96C286.734 93.3867 285.689 93.6 284.238 93.6ZM294.051 126.688C293.624 126.091 293.432 125.323 293.475 124.384C293.518 123.445 294.072 122.635 295.139 121.952C295.822 121.525 296.547 121.355 297.315 121.44C298.083 121.483 298.83 121.867 299.555 122.592C300.792 123.829 302.094 124.789 303.459 125.472C304.824 126.155 306.531 126.496 308.579 126.496C309.219 126.453 309.923 126.368 310.691 126.24C311.459 126.069 312.12 125.728 312.675 125.216C313.272 124.661 313.571 123.829 313.571 122.72C313.571 121.781 313.251 121.035 312.611 120.48C311.971 119.925 311.118 119.456 310.051 119.072C309.027 118.688 307.875 118.325 306.595 117.984C305.272 117.6 303.907 117.173 302.499 116.704C301.134 116.235 299.875 115.637 298.723 114.912C297.571 114.144 296.632 113.141 295.907 111.904C295.182 110.667 294.819 109.109 294.819 107.232C294.819 105.099 295.416 103.285 296.611 101.792C297.806 100.299 299.342 99.1467 301.219 98.336C303.139 97.5253 305.144 97.12 307.235 97.12C308.558 97.12 309.944 97.2907 311.395 97.632C312.846 97.9307 314.232 98.4427 315.555 99.168C316.878 99.8507 317.987 100.768 318.883 101.92C319.352 102.56 319.63 103.328 319.715 104.224C319.8 105.12 319.395 105.931 318.499 106.656C317.859 107.168 317.112 107.403 316.259 107.36C315.406 107.275 314.702 106.976 314.147 106.464C313.422 105.525 312.44 104.779 311.203 104.224C310.008 103.669 308.622 103.392 307.043 103.392C306.403 103.392 305.699 103.477 304.931 103.648C304.206 103.776 303.566 104.096 303.011 104.608C302.456 105.077 302.179 105.845 302.179 106.912C302.179 107.893 302.499 108.683 303.139 109.28C303.779 109.835 304.632 110.304 305.699 110.688C306.808 111.029 307.982 111.371 309.219 111.712C310.499 112.053 311.8 112.459 313.123 112.928C314.446 113.397 315.662 114.016 316.771 114.784C317.88 115.552 318.776 116.555 319.459 117.792C320.142 118.987 320.483 120.523 320.483 122.4C320.483 124.576 319.843 126.432 318.563 127.968C317.283 129.504 315.683 130.677 313.763 131.488C311.843 132.256 309.88 132.64 307.875 132.64C305.358 132.64 302.84 132.213 300.323 131.36C297.806 130.464 295.715 128.907 294.051 126.688ZM327.294 98.4H342.462C343.486 98.4 344.339 98.7413 345.022 99.424C345.705 100.107 346.046 100.96 346.046 101.984C346.046 102.965 345.705 103.797 345.022 104.48C344.339 105.12 343.486 105.44 342.462 105.44H327.294C326.27 105.44 325.417 105.099 324.734 104.416C324.051 103.733 323.71 102.88 323.71 101.856C323.71 100.875 324.051 100.064 324.734 99.424C325.417 98.7413 326.27 98.4 327.294 98.4ZM334.142 90.4C335.251 90.4 336.147 90.784 336.83 91.552C337.555 92.2773 337.918 93.1947 337.918 94.304V122.784C337.918 123.381 338.025 123.872 338.238 124.256C338.494 124.64 338.814 124.917 339.198 125.088C339.625 125.259 340.073 125.344 340.542 125.344C341.054 125.344 341.523 125.259 341.95 125.088C342.377 124.875 342.867 124.768 343.422 124.768C344.019 124.768 344.553 125.045 345.022 125.6C345.534 126.155 345.79 126.923 345.79 127.904C345.79 129.099 345.129 130.08 343.806 130.848C342.526 131.616 341.139 132 339.646 132C338.75 132 337.747 131.936 336.638 131.808C335.571 131.637 334.547 131.275 333.566 130.72C332.627 130.123 331.838 129.227 331.198 128.032C330.558 126.837 330.238 125.195 330.238 123.104V94.304C330.238 93.1947 330.601 92.2773 331.326 91.552C332.094 90.784 333.033 90.4 334.142 90.4Z" fill="white"/>
<defs>
<linearGradient id="paint0_linear_10_4" x1="410" y1="216" x2="-65" y2="216" gradientUnits="userSpaceOnUse">
<stop stop-color="#188FE5"/>
<stop offset="0.464602" stop-color="#157BC4" stop-opacity="0.432292"/>
<stop offset="1" stop-color="#0865A8" stop-opacity="0"/>
</linearGradient>
</defs>
</svg>
